<svg 
            xmlns="http://www.w3.org/2000/svg"
            width="18px" height="18px" viewBox="0 0 18 18" version="1.1"
          >
            <g id="surface1">
              <path
                style="stroke:none;fill-rule:nonzero;fill:white;fill-opacity:1;"
                d="M 6.714844 0.417969 C 2.851562 1.464844 0.117188 5.015625 0.117188 9 C 0.117188 12.351562 2.082031 15.515625 5.015625 16.898438 C 5.984375 17.367188 7.667969 17.917969 7.667969 17.765625 C 7.667969 17.765625 7.785156 17.117188 7.917969 16.332031 C 8.050781 15.550781 8.167969 14.867188 8.167969 14.800781 C 8.167969 14.632812 7.75 14.800781 6.601562 15.449219 C 6.066406 15.765625 5.582031 15.984375 5.550781 15.933594 C 5.484375 15.867188 6.285156 12.734375 7.433594 8.515625 C 7.75 7.367188 8 6.265625 8 6.050781 C 8 5.667969 8 5.667969 8.535156 5.933594 L 9.066406 6.214844 L 8.449219 5.632812 C 7.800781 5.015625 7.332031 4.101562 7.332031 3.464844 C 7.332031 2.601562 8.667969 1.332031 9.582031 1.332031 C 9.917969 1.332031 9.898438 1.367188 9.417969 2.351562 C 8.898438 3.351562 8.984375 3.765625 9.765625 4.101562 C 10.714844 4.5 10.949219 4.417969 11.417969 3.515625 C 11.933594 2.484375 12.117188 2.367188 12.332031 2.917969 C 12.785156 4.117188 12.367188 5.398438 11.285156 6.132812 C 10.882812 6.417969 10.464844 6.867188 10.351562 7.117188 C 10.101562 7.765625 9.167969 11.382812 9.234375 11.464844 C 9.265625 11.5 9.867188 11.214844 10.566406 10.832031 C 11.265625 10.449219 11.832031 10.199219 11.832031 10.285156 C 11.832031 10.367188 11.265625 12.082031 10.582031 14.082031 C 9.882812 16.082031 9.367188 17.75 9.417969 17.800781 C 9.632812 18.015625 11.785156 17.484375 12.949219 16.933594 C 15.234375 15.832031 17.082031 13.515625 17.667969 11.015625 C 18.75 6.351562 15.867188 1.632812 11.214844 0.417969 C 10.035156 0.101562 7.867188 0.117188 6.714844 0.417969 Z M 6.714844 0.417969"
              />
            </g>
          </svg>